<svg class="mb-6 h-10 w-10" width="42" height="42" viewBox="0 0 42 42" fill="none" xmlns="http://www.w3.org/2000/svg">
    <path d="M41 9.88889L33 5.44444L25 9.88889M41 9.88889L33 14.3333M41 9.88889V18.7778L33 23.2222M25 9.88889V18.7778M25 9.88889L33 14.3333M25 18.7778L33 23.2222M25 18.7778L9 27.6667M33 23.2222V32.1111L17 41M33 23.2222V14.3333M33 23.2222L17 32.1111M9 27.6667L17 32.1111M9 27.6667V9.88889M1 5.44444L9 1L17 5.44444M1 5.44444V32.1111L17 41M1 5.44444L9 9.88889M17 41V32.1111M9 9.88889L17 5.44444M17 5.44444V23.2222" stroke="#F53003" stroke-width="1.5"></path>
</svg>
